<svg width="1172" height="632" viewBox="0 0 1172 632" fill="none" xmlns="http://www.w3.org/2000/svg">
<path d="M298.016 488.798C424.533 488.798 527.094 386.236 527.094 259.72C527.094 133.204 424.533 30.6421 298.016 30.6421C171.5 30.6421 68.9385 133.204 68.9385 259.72C68.9385 386.236 171.5 488.798 298.016 488.798Z" fill="#F1F3F9" stroke="#D6DCE8" stroke-width="2" stroke-miterlimit="10"/>
<path d="M1135.19 511.112H47.8154L217.095 283.819L289.686 187.427L353.054 256.151L365.252 269.241L501.509 80.6235L559.82 0L605.338 66.3434L760.337 292.149L822.813 220.748L854.646 184.155L881.719 216.583L1135.19 511.112Z" fill="#F1F3F9"/>
<path d="M289.686 187.427L286.711 511.111H47.8154L217.095 283.818L289.686 187.427Z" fill="#E0E4ED"/>
<path d="M559.82 0L550.002 477.196L362.674 273.524L559.82 0Z" fill="#E0E4ED"/>
<path d="M860.299 464.403L757.276 296.839L854.646 184.154L860.299 464.403Z" fill="#E0E4ED"/>
<path d="M2 514.086H286.711H1135.19H1170" stroke="#D6DCE8" stroke-width="3" stroke-miterlimit="10" stroke-linecap="round" stroke-linejoin="round"/>
<path d="M616.048 556.332H691.614" stroke="#D6DCE8" stroke-width="3" stroke-miterlimit="10" stroke-linecap="round" stroke-linejoin="round"/>
<path d="M824.3 556.332H899.866" stroke="#D6DCE8" stroke-width="3" stroke-miterlimit="10" stroke-linecap="round" stroke-linejoin="round"/>
<path d="M778.187 556.332H794.252" stroke="#D6DCE8" stroke-width="3" stroke-miterlimit="10" stroke-linecap="round" stroke-linejoin="round"/>
<path d="M276.298 556.332H547.027" stroke="#D6DCE8" stroke-width="3" stroke-miterlimit="10" stroke-linecap="round" stroke-linejoin="round"/>
<path d="M162.057 556.332H196.27" stroke="#D6DCE8" stroke-width="3" stroke-miterlimit="10" stroke-linecap="round" stroke-linejoin="round"/>
<path d="M1031.66 556.332H1126.86" stroke="#D6DCE8" stroke-width="3" stroke-miterlimit="10" stroke-linecap="round" stroke-linejoin="round"/>
<path d="M17.7671 556.332H110.291" stroke="#D6DCE8" stroke-width="3" stroke-miterlimit="10" stroke-linecap="round" stroke-linejoin="round"/>
<path d="M91.5491 593.52H390.54" stroke="#D6DCE8" stroke-width="3" stroke-miterlimit="10" stroke-linecap="round" stroke-linejoin="round"/>
<path d="M567.257 593.52H778.188" stroke="#D6DCE8" stroke-width="3" stroke-miterlimit="10" stroke-linecap="round" stroke-linejoin="round"/>
<path d="M886.776 593.52H1097.71" stroke="#D6DCE8" stroke-width="3" stroke-miterlimit="10" stroke-linecap="round" stroke-linejoin="round"/>
<path d="M479.196 593.52H525.309" stroke="#D6DCE8" stroke-width="3" stroke-miterlimit="10" stroke-linecap="round" stroke-linejoin="round"/>
<path d="M713.034 630.41H968.292" stroke="#D6DCE8" stroke-width="3" stroke-miterlimit="10" stroke-linecap="round" stroke-linejoin="round"/>
<path d="M447.661 630.41H616.048" stroke="#D6DCE8" stroke-width="3" stroke-miterlimit="10" stroke-linecap="round" stroke-linejoin="round"/>
<path d="M340.56 630.41H390.54" stroke="#D6DCE8" stroke-width="3" stroke-miterlimit="10" stroke-linecap="round" stroke-linejoin="round"/>
<path d="M154.025 630.41H264.399" stroke="#D6DCE8" stroke-width="3" stroke-miterlimit="10" stroke-linecap="round" stroke-linejoin="round"/>
<path d="M399.167 437.034C399.167 455.776 383.995 464.107 365.549 464.107C347.104 464.107 331.931 455.776 331.931 437.034C331.931 418.291 365.549 302.562 365.549 302.562C365.549 302.562 399.167 418.588 399.167 437.034Z" fill="white" stroke="#D6DCE8" stroke-width="2" stroke-miterlimit="10" stroke-linejoin="round"/>
<path d="M365.252 404.309V510.518" stroke="#D6DCE8" stroke-width="2" stroke-miterlimit="10" stroke-linecap="round" stroke-linejoin="round"/>
<path d="M365.252 422.754L377.449 411.747" stroke="#D6DCE8" stroke-width="2" stroke-miterlimit="10" stroke-linecap="round" stroke-linejoin="round"/>
<path d="M365.252 448.041L347.699 427.216" stroke="#D6DCE8" stroke-width="2" stroke-miterlimit="10" stroke-linecap="round" stroke-linejoin="round"/>
<path d="M701.431 431.678C701.431 452.503 684.473 461.725 663.946 461.725C643.12 461.725 626.46 452.503 626.46 431.678C626.46 410.852 663.946 282.033 663.946 282.033C663.946 282.033 701.431 411.15 701.431 431.678Z" fill="white" stroke="#D6DCE8" stroke-width="2" stroke-miterlimit="10" stroke-linejoin="round"/>
<path d="M663.946 395.084V513.491" stroke="#D6DCE8" stroke-width="2" stroke-miterlimit="10" stroke-linecap="round" stroke-linejoin="round"/>
<path d="M663.946 415.909L677.334 403.414" stroke="#D6DCE8" stroke-width="2" stroke-miterlimit="10" stroke-linecap="round" stroke-linejoin="round"/>
<path d="M663.946 444.173L644.311 420.67" stroke="#D6DCE8" stroke-width="2" stroke-miterlimit="10" stroke-linecap="round" stroke-linejoin="round"/>
<path d="M784.732 463.511C784.732 476.304 774.32 481.956 761.824 481.956C749.032 481.956 738.917 476.304 738.917 463.511C738.917 450.718 761.824 371.88 761.824 371.88C761.824 371.88 784.732 450.718 784.732 463.511Z" fill="white" stroke="#D6DCE8" stroke-width="2" stroke-miterlimit="10" stroke-linejoin="round"/>
<path d="M761.527 441.198V513.491" stroke="#D6DCE8" stroke-width="2" stroke-miterlimit="10" stroke-linecap="round" stroke-linejoin="round"/>
<path d="M761.527 453.693L769.857 446.256" stroke="#D6DCE8" stroke-width="2" stroke-miterlimit="10" stroke-linecap="round" stroke-linejoin="round"/>
<path d="M761.527 470.949L749.626 456.668" stroke="#D6DCE8" stroke-width="2" stroke-miterlimit="10" stroke-linecap="round" stroke-linejoin="round"/>
<path d="M946.278 449.23C946.278 465.593 933.187 472.733 916.825 472.733C900.462 472.733 887.372 465.593 887.372 449.23C887.372 432.868 916.825 331.419 916.825 331.419C916.825 331.419 946.278 432.868 946.278 449.23Z" fill="white" stroke="#D6DCE8" stroke-width="2" stroke-miterlimit="10" stroke-linejoin="round"/>
<path d="M916.824 420.372V513.491" stroke="#D6DCE8" stroke-width="2" stroke-miterlimit="10" stroke-linecap="round" stroke-linejoin="round"/>
<path d="M916.824 436.438L927.237 426.918" stroke="#D6DCE8" stroke-width="2" stroke-miterlimit="10" stroke-linecap="round" stroke-linejoin="round"/>
<path d="M916.824 458.751L901.354 440.306" stroke="#D6DCE8" stroke-width="2" stroke-miterlimit="10" stroke-linecap="round" stroke-linejoin="round"/>
<path opacity="0.6" d="M367.93 271.026L316.759 275.488L292.959 299.884L264.398 294.826L217.095 324.279L202.22 304.941L290.579 187.427L367.93 271.026Z" fill="white"/>
<path opacity="0.6" d="M628.543 99.9613L604.445 94.6062L579.753 106.209L559.82 101.151L540.78 135.067L511.029 121.084L477.709 135.067L472.056 121.977L559.82 0L628.543 99.9613Z" fill="white"/>
<path opacity="0.6" d="M897.486 233.837L872.496 253.473L849.291 240.68L816.565 259.72L807.343 239.787L855.836 184.154L897.486 233.837Z" fill="white"/>
<path d="M267.076 99.3669C271.836 98.1769 276.298 97.8794 281.058 97.8794C285.521 97.8794 290.281 98.1769 294.744 98.7719C299.206 99.3669 303.966 100.557 308.429 102.639C312.891 104.722 317.354 107.697 320.031 112.755L314.974 111.565L320.329 107.399C322.411 106.209 324.197 104.722 325.982 103.532C329.849 101.152 334.014 99.0694 338.477 97.5819C342.939 96.0943 347.402 94.9043 351.864 94.3093C356.624 94.0118 361.087 94.0118 365.847 95.2018C366.74 95.4993 367.037 96.3918 366.74 96.9869C366.442 97.8794 365.847 98.1769 364.955 97.8794H364.657C360.789 96.9869 356.327 97.2844 352.162 97.8794C347.997 98.4744 343.832 99.9619 339.964 101.747C336.097 103.532 332.527 105.614 328.957 107.994C327.172 109.185 325.387 110.672 323.899 111.862L319.139 116.027C317.651 117.217 315.866 116.92 314.676 115.73L314.379 116.027L314.081 115.432C312.891 112.16 309.619 109.482 306.049 107.697C302.479 105.912 298.314 104.424 293.851 103.532C289.686 102.639 285.223 102.044 280.761 101.747C276.298 101.449 271.836 101.449 267.968 102.342H267.671C266.778 102.639 266.183 102.044 265.886 101.152C265.886 100.259 266.183 99.3669 267.076 99.3669Z" fill="#AAB2C5"/>
<path d="M134.983 180.882C139.744 179.692 144.206 179.395 148.966 179.395C153.429 179.395 158.189 179.692 162.651 180.287C167.114 180.882 171.874 182.072 176.337 184.155C180.799 186.237 185.262 189.212 187.939 194.27L182.882 193.08L188.237 188.915C190.319 187.725 192.104 186.237 193.889 185.047C197.757 182.667 201.922 180.585 206.384 179.097C210.847 177.609 215.309 176.419 219.772 175.824C224.532 175.527 228.995 175.527 233.755 176.717C234.647 177.014 234.945 177.907 234.647 178.502C234.35 179.395 233.755 179.692 232.862 179.395H232.565C228.697 178.502 224.235 178.799 220.07 179.395C215.905 179.99 211.739 181.477 207.872 183.262C204.004 185.047 200.434 187.13 196.864 189.51C195.079 190.7 193.294 192.187 191.807 193.377L187.047 197.542C185.559 198.732 183.774 198.435 182.584 197.245L182.287 196.947L181.989 196.352C180.799 193.08 177.527 190.402 173.956 188.617C170.386 186.832 166.221 185.345 161.759 184.452C157.594 183.56 153.131 182.965 148.669 182.667C144.206 182.37 139.744 182.37 135.876 183.262H135.578C134.686 183.56 134.091 182.965 133.793 182.072C133.793 181.775 134.388 180.882 134.983 180.882Z" fill="#AAB2C5"/>
<path d="M299.206 169.28C303.966 168.09 308.429 167.792 313.189 167.792C317.652 167.792 322.412 168.09 326.874 168.685C331.337 169.28 336.097 170.47 340.559 172.553C345.022 174.635 349.485 177.61 352.162 182.668L347.104 181.478L352.46 177.313C354.542 176.123 356.327 174.635 358.112 173.445C361.98 171.065 366.145 168.982 370.607 167.495C375.07 166.007 379.532 164.817 383.995 164.222C388.755 163.925 393.218 163.925 397.978 165.115C398.87 165.412 399.168 166.305 398.87 166.9C398.573 167.792 397.978 168.09 397.085 167.792H396.788C392.92 166.9 388.458 167.197 384.292 167.792C380.127 168.387 375.962 169.875 372.095 171.66C368.227 173.445 364.657 175.528 361.087 177.908C359.302 179.098 357.517 180.585 356.03 181.775L351.27 185.94C349.782 187.13 347.997 186.833 346.807 185.643L346.509 185.345L346.212 184.75C345.022 181.478 341.749 178.8 338.179 177.015C334.609 175.23 330.444 173.743 325.982 172.85C321.817 171.958 317.354 171.362 312.892 171.065C308.429 170.767 303.966 170.767 300.099 171.66H299.801C298.909 171.958 298.314 171.362 298.016 170.47C298.016 170.172 298.314 169.28 299.206 169.28Z" fill="#AAB2C5"/>
<path d="M1135.6 514.345H48.2249L217.505 287.052L290.095 190.661L353.464 259.384L359.563 265.929L365.661 272.474L501.918 83.8569L560.229 3.2334L605.747 69.5768L760.747 295.382L823.222 223.981L855.055 187.388L882.128 219.816L1135.6 514.345Z" stroke="#D6DCE8" stroke-width="2" stroke-miterlimit="10" stroke-linejoin="round"/>
<path d="M507.291 227.009C507.291 240.018 496.771 250.539 483.648 250.539C483.422 250.539 481.499 250.539 467.359 250.539C457.517 250.539 441.793 250.539 416.68 250.539H404.689C388.965 250.878 376.409 238.322 376.409 223.163C376.409 207.892 389.078 195.222 405.029 196.014C418.716 153.254 481.386 159.249 486.703 203.48C498.467 204.951 507.291 214.905 507.291 227.009Z" fill="white" stroke="#D6DCE8" stroke-width="2" stroke-miterlimit="10"/>
<path d="M486.363 203.593C485.458 203.479 484.553 203.479 483.648 203.479C479.01 203.479 474.599 204.837 470.865 207.213" fill="white"/>
<path d="M486.363 203.593C485.458 203.479 484.553 203.479 483.648 203.479C479.01 203.479 474.599 204.837 470.865 207.213" stroke="#D6DCE8" stroke-width="2" stroke-miterlimit="10" stroke-linecap="round"/>
<path d="M405.029 196.014C403.671 200.087 402.992 204.385 402.992 208.91C402.992 210.72 403.106 212.417 403.332 214.114" fill="white"/>
<path d="M405.029 196.014C403.671 200.087 402.992 204.385 402.992 208.91C402.992 210.72 403.106 212.417 403.332 214.114" stroke="#D6DCE8" stroke-width="2" stroke-miterlimit="10" stroke-linecap="round" stroke-linejoin="round"/>
<path d="M778.187 171.867C778.187 188.854 764.45 202.592 747.315 202.592C747.019 202.592 744.508 202.592 726.044 202.592C713.192 202.592 692.66 202.592 659.867 202.592H644.21C623.677 203.035 607.281 186.638 607.281 166.845C607.281 146.903 623.825 130.359 644.653 131.393C662.526 75.5567 744.36 83.3856 751.303 141.142C766.665 143.062 778.187 156.061 778.187 171.867Z" fill="white" stroke="#D6DCE8" stroke-width="2" stroke-miterlimit="10"/>
<path d="M750.86 141.29C749.678 141.143 748.497 141.143 747.315 141.143C741.259 141.143 735.498 142.915 730.623 146.017" fill="white"/>
<path d="M750.86 141.29C749.678 141.143 748.497 141.143 747.315 141.143C741.259 141.143 735.498 142.915 730.623 146.017" stroke="#D6DCE8" stroke-width="2" stroke-miterlimit="10" stroke-linecap="round"/>
<path d="M644.652 131.393C642.88 136.71 641.993 142.323 641.993 148.232C641.993 150.596 642.141 152.811 642.437 155.027" fill="white"/>
<path d="M644.652 131.393C642.88 136.71 641.993 142.323 641.993 148.232C641.993 150.596 642.141 152.811 642.437 155.027" stroke="#D6DCE8" stroke-width="2" stroke-miterlimit="10" stroke-linecap="round" stroke-linejoin="round"/>
</svg>
