<svg width="310" height="270" viewBox="0 0 310 270" fill="none" xmlns="http://www.w3.org/2000/svg">
<path d="M147.23 247C205.871 247 253.412 199.459 253.412 140.609C253.412 81.7588 205.662 34.2179 147.23 34.2179C88.5897 34.2179 41.0488 81.7588 41.0488 140.609C41.0488 199.459 88.5897 247 147.23 247Z" fill="#EAEEF9"/>
<path d="M246.501 70.8684C251.243 70.8684 255.087 67.024 255.087 62.2817C255.087 57.5394 251.243 53.695 246.501 53.695C241.758 53.695 237.914 57.5394 237.914 62.2817C237.914 67.024 241.758 70.8684 246.501 70.8684Z" fill="#EAEEF9"/>
<path d="M259.067 37.3593C262.305 37.3593 264.931 34.7339 264.931 31.4952C264.931 28.2566 262.305 25.6312 259.067 25.6312C255.828 25.6312 253.203 28.2566 253.203 31.4952C253.203 34.7339 255.828 37.3593 259.067 37.3593Z" fill="#EAEEF9"/>
<path d="M46.7032 70.6589C49.9418 70.6589 52.5673 68.0335 52.5673 64.7949C52.5673 61.5562 49.9418 58.9308 46.7032 58.9308C43.4645 58.9308 40.8391 61.5562 40.8391 64.7949C40.8391 68.0335 43.4645 70.6589 46.7032 70.6589Z" fill="#EAEEF9"/>
<path d="M10.8904 183.752C16.905 183.752 21.7808 178.876 21.7808 172.861C21.7808 166.847 16.905 161.971 10.8904 161.971C4.87581 161.971 0 166.847 0 172.861C0 178.876 4.87581 183.752 10.8904 183.752Z" fill="#EAEEF9"/>
<path d="M309.055 107.205H298.665V96.815H289.759V107.205H279.369V116.408H289.759V126.798H298.665V116.408H309.055V107.205Z" fill="url(#paint0_linear_36_2)"/>
<path d="M137.111 8.88208H128.229V0H120.615V8.88208H111.733V16.7491H120.615V25.6312H128.229V16.7491H137.111V8.88208Z" fill="url(#paint1_linear_36_2)"/>
<path d="M32.5727 97.4962H24.9839V89.9073H18.4792V97.4962H10.8904V104.218H18.4792V111.807H24.9839V104.218H32.5727V97.4962Z" fill="url(#paint2_linear_36_2)"/>
<g filter="url(#filter0_d_36_2)">
<path d="M221.922 120.092L200.951 68.8825C197.212 59.7787 187.458 54.5765 177.866 56.6899L123.731 68.3948C119.179 69.3702 115.277 72.4591 113.001 76.5233L61.4668 174.715C59.3534 178.779 60.8165 183.981 65.0433 186.095L158.358 235.19C162.422 237.304 167.624 235.841 169.738 231.614L221.272 133.422C223.548 129.358 223.71 124.481 221.922 120.092ZM170.063 99.4455C163.397 96.0315 160.796 87.7405 164.373 81.0752C167.787 74.4099 176.078 71.8088 182.743 75.3853C189.408 78.7992 192.01 87.0902 188.433 93.7556C185.019 100.421 176.728 103.022 170.063 99.4455Z" fill="url(#paint3_linear_36_2)"/>
</g>
<path d="M176.728 86.9276C219.158 64.9809 235.903 32.3045 213.794 18.161C191.684 4.01755 169.9 18.161 164.373 59.2909" stroke="#ADB6C8" stroke-width="5" stroke-miterlimit="10" stroke-linecap="round" stroke-linejoin="round"/>
<path d="M165.655 157.774C168.525 159.363 172.347 158.265 173.936 155.395C175.525 152.524 174.427 148.702 171.557 147.113C168.686 145.524 164.864 146.622 163.275 149.493C161.572 152.568 162.579 156.072 165.655 157.774Z" fill="#AAB2C5"/>
<path d="M149.297 165.274L146.632 163.798C147.101 157.629 142.176 152.492 136.099 152.342C133.799 152.141 131.251 152.873 129.41 154.264L126.744 152.789C132.518 147.681 141.715 148.487 146.504 154.352C148.693 157.171 149.997 161.107 149.297 165.274Z" fill="#AAB2C5"/>
<path d="M124.649 135.075C127.52 136.664 131.342 135.565 132.931 132.695C134.52 129.825 133.422 126.002 130.551 124.413C127.681 122.824 123.858 123.923 122.27 126.793C120.772 129.982 121.779 133.486 124.649 135.075Z" fill="#AAB2C5"/>
<defs>
<filter id="filter0_d_36_2" x="38.5081" y="45.2211" width="206.628" height="223.928" filterUnits="userSpaceOnUse" color-interpolation-filters="sRGB">
<feFlood flood-opacity="0" result="BackgroundImageFix"/>
<feColorMatrix in="SourceAlpha" type="matrix" values="0 0 0 0 0 0 0 0 0 0 0 0 0 0 0 0 0 0 127 0" result="hardAlpha"/>
<feOffset dy="11"/>
<feGaussianBlur stdDeviation="11"/>
<feColorMatrix type="matrix" values="0 0 0 0 0.397708 0 0 0 0 0.47749 0 0 0 0 0.575 0 0 0 0.27 0"/>
<feBlend mode="normal" in2="BackgroundImageFix" result="effect1_dropShadow_36_2"/>
<feBlend mode="normal" in="SourceGraphic" in2="effect1_dropShadow_36_2" result="shape"/>
</filter>
<linearGradient id="paint0_linear_36_2" x1="294.214" y1="97.8566" x2="294.214" y2="114.686" gradientUnits="userSpaceOnUse">
<stop stop-color="#B0BACC"/>
<stop offset="1" stop-color="#969EAE"/>
</linearGradient>
<linearGradient id="paint1_linear_36_2" x1="124.424" y1="0.890396" x2="124.424" y2="15.2769" gradientUnits="userSpaceOnUse">
<stop stop-color="#B0BACC"/>
<stop offset="1" stop-color="#969EAE"/>
</linearGradient>
<linearGradient id="paint2_linear_36_2" x1="21.7333" y1="90.6681" x2="21.7333" y2="102.96" gradientUnits="userSpaceOnUse">
<stop stop-color="#B0BACC"/>
<stop offset="1" stop-color="#969EAE"/>
</linearGradient>
<linearGradient id="paint3_linear_36_2" x1="141.769" y1="52.0592" x2="141.769" y2="238.089" gradientUnits="userSpaceOnUse">
<stop stop-color="#FDFEFF"/>
<stop offset="0.9964" stop-color="#ECF0F5"/>
</linearGradient>
</defs>
</svg>
