<svg width="223" height="190" viewBox="0 0 223 190" fill="none" xmlns="http://www.w3.org/2000/svg">
<path d="M76.7263 56.7138V40.9297C76.7263 25.1455 89.3161 12.18 105.288 12.18C120.884 12.18 133.85 24.9576 133.85 40.9297V56.7138" stroke="#C7D2DD" stroke-width="1.8941" stroke-miterlimit="10" stroke-linecap="round" stroke-linejoin="round"/>
<path d="M174.438 173.967C175.189 173.592 175.377 173.216 176.129 173.028" stroke="#FF78B7" stroke-width="0.6123" stroke-linecap="round" stroke-linejoin="round"/>
<path d="M19.415 189H221.039" stroke="#B1B9CC" stroke-width="2" stroke-miterlimit="10" stroke-linecap="round" stroke-linejoin="round"/>
<path d="M1 189H9.26789" stroke="#B1B9CC" stroke-width="2" stroke-miterlimit="10" stroke-linecap="round" stroke-linejoin="round"/>
<path d="M188.718 26.8368H28.6221V187.309H188.718V26.8368Z" fill="white"/>
<path d="M189.094 26.8368H73.156V187.309H188.906V26.8368H189.094Z" fill="#E6ECF5"/>
<path d="M50.795 26.8368H28.6221V187.309H50.795V26.8368Z" fill="url(#paint0_linear_46_20)"/>
<path d="M73.1559 187.309H28.6221V186.933L51.1709 164.572L73.1559 187.309Z" fill="#E6ECF5"/>
<path d="M101.154 62.5389C104.349 62.5389 106.979 59.9082 106.979 56.7138C106.979 53.5194 104.349 50.8887 101.154 50.8887C97.9598 50.8887 95.3291 53.5194 95.3291 56.7138C95.3291 59.9082 97.9598 62.5389 101.154 62.5389Z" fill="#C7D2DD"/>
<path d="M158.278 62.5389C161.472 62.5389 164.103 59.9082 164.103 56.7138C164.103 53.5194 161.472 50.8887 158.278 50.8887C155.084 50.8887 152.453 53.5194 152.453 56.7138C152.641 59.9082 155.084 62.5389 158.278 62.5389Z" fill="#C7D2DD"/>
<path d="M101.154 56.7138V40.9297C101.154 25.1455 113.744 12.18 129.716 12.18C145.312 12.18 158.278 24.9576 158.278 40.9297V56.7138" stroke="#C7D2DD" stroke-width="1.8941" stroke-miterlimit="10" stroke-linecap="round" stroke-linejoin="round"/>
<path d="M176.493 5.71535C180.551 3.11416 185.337 1.6575 190.436 1.6575C204.378 1.6575 215.719 12.8946 215.719 26.837C215.719 40.7794 204.378 52.0165 190.436 52.0165C176.493 52.0165 165.152 40.7794 165.152 26.837C164.944 17.993 169.522 10.2934 176.493 5.71535Z" fill="url(#paint1_linear_46_20)"/>
<path d="M190.432 38.1112C185.354 38.1112 181.037 33.5507 181.037 26.7101C181.037 19.8694 185.354 15.5624 190.432 15.5624C195.511 15.5624 199.828 19.8694 199.828 26.7101C199.828 33.5507 195.511 38.1112 190.432 38.1112ZM190.432 32.7907C192.21 32.7907 193.987 31.0172 193.987 26.7101C194.241 22.6564 192.21 20.6295 190.432 20.6295C188.655 20.6295 186.877 22.6564 186.877 26.7101C186.877 31.0172 188.655 32.7907 190.432 32.7907Z" fill="white"/>
<path d="M111.632 108.199C105.177 108.199 99.7551 104.07 97.6896 98.1331C97.1732 96.8425 97.9478 95.5519 99.2387 95.0357C100.53 94.5195 101.821 95.2938 102.337 96.5844C103.628 100.456 107.501 103.295 111.632 103.295C115.763 103.295 119.636 100.714 120.927 96.5844C121.443 95.2938 122.734 94.5195 124.025 95.0357C125.316 95.5519 126.091 96.8425 125.574 98.1331C123.509 104.328 118.087 108.199 111.632 108.199Z" fill="#ADB6C8"/>
<path d="M150.619 108.199C144.164 108.199 138.742 104.07 136.676 98.1331C136.16 96.8425 136.935 95.5519 138.226 95.0357C139.517 94.5195 140.807 95.2938 141.324 96.5844C142.615 100.456 146.488 103.295 150.619 103.295C154.75 103.295 158.623 100.714 159.914 96.5844C160.43 95.2938 161.721 94.5195 163.012 95.0357C164.303 95.5519 165.078 96.8425 164.561 98.1331C162.496 104.328 157.074 108.199 150.619 108.199Z" fill="#ADB6C8"/>
<path d="M131.255 139.803C134.534 139.803 137.193 137.145 137.193 133.866C137.193 130.588 134.534 127.93 131.255 127.93C127.975 127.93 125.316 130.588 125.316 133.866C125.316 137.145 127.975 139.803 131.255 139.803Z" fill="#ADB6C8"/>
<path d="M23.1019 8.73704V0H56.869V8.73704L33.8279 36.5367H57.2662V45.2737H21.9102V36.5367L44.9512 8.73704H23.1019V8.73704Z" fill="url(#paint2_linear_46_20)"/>
<path d="M50.91 74.2646V68.7047H72.7593V74.2646L58.0607 92.1359H73.1565V97.6958H50.1155V92.1359L64.8141 74.2646H50.91Z" fill="url(#paint3_linear_46_20)"/>
<defs>
<linearGradient id="paint0_linear_46_20" x1="39.6595" y1="31.1075" x2="39.6595" y2="185" gradientUnits="userSpaceOnUse">
<stop offset="0.00289017" stop-color="#E6ECF5"/>
<stop offset="1" stop-color="#CED7E2"/>
</linearGradient>
<linearGradient id="paint1_linear_46_20" x1="190.436" y1="3.40691" x2="190.436" y2="31.6729" gradientUnits="userSpaceOnUse">
<stop stop-color="#B0BACC"/>
<stop offset="1" stop-color="#969EAE"/>
</linearGradient>
<linearGradient id="paint2_linear_46_20" x1="39.591" y1="1.57276" x2="39.591" y2="26.9844" gradientUnits="userSpaceOnUse">
<stop stop-color="#B0BACC"/>
<stop offset="1" stop-color="#969EAE"/>
</linearGradient>
<linearGradient id="paint3_linear_46_20" x1="61.6378" y1="69.7118" x2="61.6378" y2="85.9842" gradientUnits="userSpaceOnUse">
<stop stop-color="#B0BACC"/>
<stop offset="1" stop-color="#969EAE"/>
</linearGradient>
</defs>
</svg>
