<svg xmlns="http://www.w3.org/2000/svg" width="82" height="26" fill="none" viewBox="0 0 82 26"><path fill="#050505" d="M5.90411 26C3.96037 26 2.49042 25.4583 1.49425 24.375C0.498083 23.2676 0 21.6907 0 19.6444V18.2H3.79029V19.9333C3.79029 21.5704 4.48275 22.3889 5.86766 22.3889C6.54797 22.3889 7.0582 22.1963 7.39836 21.8111C7.76281 21.4019 7.94503 20.7519 7.94503 19.8611C7.94503 18.8019 7.70207 17.875 7.21613 17.0806C6.7302 16.262 5.83122 15.287 4.51919 14.1556C2.86702 12.7111 1.71292 11.4111 1.05691 10.2556C0.400896 9.07593 0.0728902 7.75185 0.0728902 6.28333C0.0728902 4.28519 0.583122 2.74444 1.60358 1.66111C2.62405 0.553704 4.10615 0 6.04989 0C7.96933 0 9.41499 0.553704 10.3869 1.66111C11.383 2.74444 11.8811 4.30926 11.8811 6.35556V7.40278H8.09081V6.10278C8.09081 5.23611 7.92074 4.61019 7.58058 4.225C7.24043 3.81574 6.74235 3.61111 6.08633 3.61111C4.75001 3.61111 4.08185 4.41759 4.08185 6.03056C4.08185 6.94537 4.32482 7.8 4.81075 8.59444C5.32099 9.38889 6.23211 10.3519 7.54414 11.4833C9.22061 12.9278 10.3747 14.2398 11.0064 15.4194C11.6381 16.5991 11.954 17.9833 11.954 19.5722C11.954 21.6426 11.4316 23.2315 10.3869 24.3389C9.36639 25.4463 7.87214 26 5.90411 26Z"/><path fill="#050505" d="M14.2526 0.361111H19.282L23.1817 15.4917H23.2545V0.361111H26.8262V25.6389H22.7079L17.8971 7.18611H17.8242V25.6389H14.2526V0.361111Z"/><path fill="#050505" d="M32.9037 0.361111H38.334L42.4887 25.6389H38.4798L37.7509 20.6194V20.6917H33.1952L32.4663 25.6389H28.7489L32.9037 0.361111ZM37.2771 17.2611L35.4913 4.76667H35.4184L33.669 17.2611H37.2771Z"/><path fill="#050505" d="M44.4337 0.361111H55.3672V3.97222H48.4427V10.6528H53.9459V14.2639H48.4427V22.0278H55.3672V25.6389H44.4337V0.361111Z"/><path fill="#050505" d="M57.6735 0.361111H61.6825V22.0278H68.2791V25.6389H57.6735V0.361111Z"/><path fill="#050505" d="M70.6793 14.8778L65.8321 0.361111H70.0962L72.8296 9.64167H72.9025L75.6358 0.361111H79.5355L74.6883 14.8778V25.6389H70.6793V14.8778Z"/><path fill="#050505" d="M77.9604 21.8111H81.8235V25.6389H77.9604V21.8111Z"/></svg>