<svg width="939" height="103" viewBox="0 0 939 103" fill="none" xmlns="http://www.w3.org/2000/svg">
<path d="M0.110352 1.60017H15.1624L22.1204 77.9962H22.4044L29.7884 1.60017H46.8284L54.2124 77.9962H54.4964L61.4544 1.60017H74.9444L64.8624 101H45.4084L38.3084 33.9762H38.0244L30.9244 101H10.1924L0.110352 1.60017ZM82.8453 1.60017H98.4653V101H82.8453V1.60017ZM122.376 15.8002H106.046V1.60017H154.326V15.8002H137.996V101H122.376V15.8002ZM161.888 1.60017H177.508V42.0702H194.264V1.60017H209.884V101H194.264V56.2702H177.508V101H161.888V1.60017ZM266.838 102.42C259.17 102.42 253.3 100.243 249.23 95.8882C245.159 91.5335 243.123 85.3802 243.123 77.4282V25.1722C243.123 17.2202 245.159 11.0669 249.23 6.71218C253.3 2.35751 259.17 0.180176 266.838 0.180176C274.506 0.180176 280.375 2.35751 284.446 6.71218C288.516 11.0669 290.552 17.2202 290.552 25.1722V77.4282C290.552 85.3802 288.516 91.5335 284.446 95.8882C280.375 100.243 274.506 102.42 266.838 102.42ZM266.838 88.2202C272.234 88.2202 274.931 84.9542 274.931 78.4222V24.1782C274.931 17.6462 272.234 14.3802 266.838 14.3802C261.442 14.3802 258.744 17.6462 258.744 24.1782V78.4222C258.744 84.9542 261.442 88.2202 266.838 88.2202ZM323.835 102.42C316.262 102.42 310.487 100.29 306.511 96.0302C302.535 91.6755 300.547 85.4749 300.547 77.4282V1.60017H316.167V78.5642C316.167 81.9722 316.83 84.4335 318.155 85.9482C319.575 87.4629 321.563 88.2202 324.119 88.2202C326.675 88.2202 328.616 87.4629 329.941 85.9482C331.361 84.4335 332.071 81.9722 332.071 78.5642V1.60017H347.123V77.4282C347.123 85.4749 345.135 91.6755 341.159 96.0302C337.183 100.29 331.408 102.42 323.835 102.42ZM358.248 1.60017H381.394C389.44 1.60017 395.31 3.49351 399.002 7.28018C402.694 10.9722 404.54 16.6995 404.54 24.4622V30.5682C404.54 40.8869 401.132 47.4189 394.316 50.1642V50.4482C398.102 51.5842 400.753 53.9035 402.268 57.4062C403.877 60.9089 404.682 65.5949 404.682 71.4642V88.9302C404.682 91.7702 404.776 94.0895 404.966 95.8882C405.155 97.5922 405.628 99.2962 406.386 101H390.482C389.914 99.3909 389.535 97.8762 389.346 96.4562C389.156 95.0362 389.062 92.4802 389.062 88.7882V70.6122C389.062 66.0682 388.304 62.8969 386.79 61.0982C385.37 59.2995 382.861 58.4002 379.264 58.4002H373.868V101H358.248V1.60017ZM379.548 44.2002C382.672 44.2002 384.991 43.3955 386.506 41.7862C388.115 40.1769 388.92 37.4789 388.92 33.6922V26.0242C388.92 22.4269 388.257 19.8235 386.932 18.2142C385.701 16.6049 383.713 15.8002 380.968 15.8002H373.868V44.2002H379.548ZM460.271 102.42C452.793 102.42 447.065 100.29 443.089 96.0302C439.208 91.7702 437.267 85.7589 437.267 77.9962V24.6042C437.267 16.8415 439.208 10.8302 443.089 6.57018C447.065 2.31018 452.793 0.180176 460.271 0.180176C467.75 0.180176 473.43 2.31018 477.311 6.57018C481.287 10.8302 483.275 16.8415 483.275 24.6042V35.1122H468.507V23.6102C468.507 17.4569 465.904 14.3802 460.697 14.3802C455.491 14.3802 452.887 17.4569 452.887 23.6102V79.1322C452.887 85.1909 455.491 88.2202 460.697 88.2202C465.904 88.2202 468.507 85.1909 468.507 79.1322V63.9382H483.275V77.9962C483.275 85.7589 481.287 91.7702 477.311 96.0302C473.43 100.29 467.75 102.42 460.271 102.42ZM515.476 102.42C507.808 102.42 501.939 100.243 497.868 95.8882C493.798 91.5335 491.762 85.3802 491.762 77.4282V25.1722C491.762 17.2202 493.798 11.0669 497.868 6.71218C501.939 2.35751 507.808 0.180176 515.476 0.180176C523.144 0.180176 529.014 2.35751 533.084 6.71218C537.155 11.0669 539.19 17.2202 539.19 25.1722V77.4282C539.19 85.3802 537.155 91.5335 533.084 95.8882C529.014 100.243 523.144 102.42 515.476 102.42ZM515.476 88.2202C520.872 88.2202 523.57 84.9542 523.57 78.4222V24.1782C523.57 17.6462 520.872 14.3802 515.476 14.3802C510.08 14.3802 507.382 17.6462 507.382 24.1782V78.4222C507.382 84.9542 510.08 88.2202 515.476 88.2202ZM549.754 1.60017H565.374V86.8002H591.076V101H549.754V1.60017ZM598.566 1.60017H614.186V86.8002H639.888V101H598.566V1.60017ZM647.379 1.60017H689.979V15.8002H662.999V42.0702H684.441V56.2702H662.999V86.8002H689.979V101H647.379V1.60017ZM720.975 102.42C713.496 102.42 707.769 100.29 703.793 96.0302C699.911 91.7702 697.971 85.7589 697.971 77.9962V24.6042C697.971 16.8415 699.911 10.8302 703.793 6.57018C707.769 2.31018 713.496 0.180176 720.975 0.180176C728.453 0.180176 734.133 2.31018 738.015 6.57018C741.991 10.8302 743.979 16.8415 743.979 24.6042V35.1122H729.211V23.6102C729.211 17.4569 726.607 14.3802 721.401 14.3802C716.194 14.3802 713.591 17.4569 713.591 23.6102V79.1322C713.591 85.1909 716.194 88.2202 721.401 88.2202C726.607 88.2202 729.211 85.1909 729.211 79.1322V63.9382H743.979V77.9962C743.979 85.7589 741.991 91.7702 738.015 96.0302C734.133 100.29 728.453 102.42 720.975 102.42ZM765.536 15.8002H749.206V1.60017H797.486V15.8002H781.156V101H765.536V15.8002ZM805.049 1.60017H820.669V101H805.049V1.60017ZM854.945 102.42C847.277 102.42 841.408 100.243 837.337 95.8882C833.266 91.5335 831.231 85.3802 831.231 77.4282V25.1722C831.231 17.2202 833.266 11.0669 837.337 6.71218C841.408 2.35751 847.277 0.180176 854.945 0.180176C862.613 0.180176 868.482 2.35751 872.553 6.71218C876.624 11.0669 878.659 17.2202 878.659 25.1722V77.4282C878.659 85.3802 876.624 91.5335 872.553 95.8882C868.482 100.243 862.613 102.42 854.945 102.42ZM854.945 88.2202C860.341 88.2202 863.039 84.9542 863.039 78.4222V24.1782C863.039 17.6462 860.341 14.3802 854.945 14.3802C849.549 14.3802 846.851 17.6462 846.851 24.1782V78.4222C846.851 84.9542 849.549 88.2202 854.945 88.2202ZM889.222 1.60017H908.818L924.012 61.0982H924.296V1.60017H938.212V101H922.166L903.422 28.4382H903.138V101H889.222V1.60017Z" fill="#070707"/>
</svg>
