<svg xmlns="http://www.w3.org/2000/svg" width="1061" height="103" fill="none" viewBox="0 0 1061 103"><path fill="#070707" d="M23.8321 102.42C16.3534 102.42 10.6261 100.29 6.65013 96.0302C2.7688 91.7702 0.828125 85.7589 0.828125 77.9962V24.6042C0.828125 16.8415 2.7688 10.8302 6.65013 6.57018C10.6261 2.31018 16.3534 0.180176 23.8321 0.180176C31.3108 0.180176 36.9908 2.31018 40.8721 6.57018C44.8481 10.8302 46.8361 16.8415 46.8361 24.6042V35.1122H32.0681V23.6102C32.0681 17.4569 29.4648 14.3802 24.2581 14.3802C19.0514 14.3802 16.4481 17.4569 16.4481 23.6102V79.1322C16.4481 85.1909 19.0514 88.2202 24.2581 88.2202C29.4648 88.2202 32.0681 85.1909 32.0681 79.1322V63.9382H46.8361V77.9962C46.8361 85.7589 44.8481 91.7702 40.8721 96.0302C36.9908 100.29 31.3108 102.42 23.8321 102.42ZM56.1815 1.60017H79.3275C87.3741 1.60017 93.2435 3.49351 96.9355 7.28018C100.627 10.9722 102.473 16.6995 102.473 24.4622V30.5682C102.473 40.8869 99.0655 47.4189 92.2495 50.1642V50.4482C96.0361 51.5842 98.6868 53.9035 100.201 57.4062C101.811 60.9089 102.615 65.5949 102.615 71.4642V88.9302C102.615 91.7702 102.71 94.0895 102.899 95.8882C103.089 97.5922 103.562 99.2962 104.319 101H88.4155C87.8475 99.3909 87.4688 97.8762 87.2795 96.4562C87.0901 95.0362 86.9955 92.4802 86.9955 88.7882V70.6122C86.9955 66.0682 86.2381 62.8969 84.7235 61.0982C83.3035 59.2995 80.7948 58.4002 77.1975 58.4002H71.8015V101H56.1815V1.60017ZM77.4815 44.2002C80.6055 44.2002 82.9248 43.3955 84.4395 41.7862C86.0488 40.1769 86.8535 37.4789 86.8535 33.6922V26.0242C86.8535 22.4269 86.1908 19.8235 84.8655 18.2142C83.6348 16.6049 81.6468 15.8002 78.9015 15.8002H71.8015V44.2002H77.4815ZM113.453 1.60017H156.053V15.8002H129.073V42.0702H150.515V56.2702H129.073V86.8002H156.053V101H113.453V1.60017ZM177.109 1.60017H198.267L214.455 101H198.835L195.995 81.2622V81.5462H178.245L175.405 101H160.921L177.109 1.60017ZM194.149 68.0562L187.191 18.9242H186.907L180.091 68.0562H194.149ZM227.727 15.8002H211.397V1.60017H259.677V15.8002H243.347V101H227.727V15.8002ZM267.24 1.60017H309.84V15.8002H282.86V42.0702H304.302V56.2702H282.86V86.8002H309.84V101H267.24V1.60017ZM355.91 58.6842L337.024 1.60017H353.638L364.288 38.0942H364.572L375.222 1.60017H390.416L371.53 58.6842V101H355.91V58.6842ZM417.535 102.42C409.867 102.42 403.997 100.243 399.927 95.8882C395.856 91.5335 393.821 85.3802 393.821 77.4282V25.1722C393.821 17.2202 395.856 11.0669 399.927 6.71218C403.997 2.35751 409.867 0.180176 417.535 0.180176C425.203 0.180176 431.072 2.35751 435.143 6.71218C439.213 11.0669 441.249 17.2202 441.249 25.1722V77.4282C441.249 85.3802 439.213 91.5335 435.143 95.8882C431.072 100.243 425.203 102.42 417.535 102.42ZM417.535 88.2202C422.931 88.2202 425.629 84.9542 425.629 78.4222V24.1782C425.629 17.6462 422.931 14.3802 417.535 14.3802C412.139 14.3802 409.441 17.6462 409.441 24.1782V78.4222C409.441 84.9542 412.139 88.2202 417.535 88.2202ZM474.532 102.42C466.959 102.42 461.184 100.29 457.208 96.0302C453.232 91.6755 451.244 85.4749 451.244 77.4282V1.60017H466.864V78.5642C466.864 81.9722 467.527 84.4335 468.852 85.9482C470.272 87.4629 472.26 88.2202 474.816 88.2202C477.372 88.2202 479.313 87.4629 480.638 85.9482C482.058 84.4335 482.768 81.9722 482.768 78.5642V1.60017H497.82V77.4282C497.82 85.4749 495.832 91.6755 491.856 96.0302C487.88 100.29 482.106 102.42 474.532 102.42ZM508.945 1.60017H532.091C540.138 1.60017 546.007 3.49351 549.699 7.28018C553.391 10.9722 555.237 16.6995 555.237 24.4622V30.5682C555.237 40.8869 551.829 47.4189 545.013 50.1642V50.4482C548.8 51.5842 551.45 53.9035 552.965 57.4062C554.574 60.9089 555.379 65.5949 555.379 71.4642V88.9302C555.379 91.7702 555.474 94.0895 555.663 95.8882C555.852 97.5922 556.326 99.2962 557.083 101H541.179C540.611 99.3909 540.232 97.8762 540.043 96.4562C539.854 95.0362 539.759 92.4802 539.759 88.7882V70.6122C539.759 66.0682 539.002 62.8969 537.487 61.0982C536.067 59.2995 533.558 58.4002 529.961 58.4002H524.565V101H508.945V1.60017ZM530.245 44.2002C533.369 44.2002 535.688 43.3955 537.203 41.7862C538.812 40.1769 539.617 37.4789 539.617 33.6922V26.0242C539.617 22.4269 538.954 19.8235 537.629 18.2142C536.398 16.6049 534.41 15.8002 531.665 15.8002H524.565V44.2002H530.245ZM611.537 102.42C603.869 102.42 597.999 100.243 593.929 95.8882C589.858 91.5335 587.823 85.3802 587.823 77.4282V25.1722C587.823 17.2202 589.858 11.0669 593.929 6.71218C597.999 2.35751 603.869 0.180176 611.537 0.180176C619.205 0.180176 625.074 2.35751 629.145 6.71218C633.215 11.0669 635.251 17.2202 635.251 25.1722V77.4282C635.251 85.3802 633.215 91.5335 629.145 95.8882C625.074 100.243 619.205 102.42 611.537 102.42ZM611.537 88.2202C616.933 88.2202 619.631 84.9542 619.631 78.4222V24.1782C619.631 17.6462 616.933 14.3802 611.537 14.3802C606.141 14.3802 603.443 17.6462 603.443 24.1782V78.4222C603.443 84.9542 606.141 88.2202 611.537 88.2202ZM642.122 1.60017H657.174L664.132 77.9962H664.416L671.8 1.60017H688.84L696.224 77.9962H696.508L703.466 1.60017H716.956L706.874 101H687.42L680.32 33.9762H680.036L672.936 101H652.204L642.122 1.60017ZM724.857 1.60017H744.453L759.647 61.0982H759.931V1.60017H773.847V101H757.801L739.057 28.4382H738.773V101H724.857V1.60017ZM828.505 102.42C820.932 102.42 815.204 100.29 811.323 96.0302C807.442 91.6755 805.501 85.4749 805.501 77.4282V71.7482H820.269V78.5642C820.269 85.0015 822.967 88.2202 828.363 88.2202C831.014 88.2202 833.002 87.4629 834.327 85.9482C835.747 84.3389 836.457 81.7829 836.457 78.2802C836.457 74.1149 835.51 70.4702 833.617 67.3462C831.724 64.1275 828.221 60.2935 823.109 55.8442C816.672 50.1642 812.175 45.0522 809.619 40.5082C807.063 35.8695 805.785 30.6629 805.785 24.8882C805.785 17.0309 807.773 10.9722 811.749 6.71218C815.725 2.35751 821.5 0.180176 829.073 0.180176C836.552 0.180176 842.184 2.35751 845.971 6.71218C849.852 10.9722 851.793 17.1255 851.793 25.1722V29.2902H837.025V24.1782C837.025 20.7702 836.362 18.3089 835.037 16.7942C833.712 15.1849 831.771 14.3802 829.215 14.3802C824.008 14.3802 821.405 17.5515 821.405 23.8942C821.405 27.4915 822.352 30.8522 824.245 33.9762C826.233 37.1002 829.783 40.8869 834.895 45.3362C841.427 51.0162 845.924 56.1755 848.385 60.8142C850.846 65.4529 852.077 70.8962 852.077 77.1442C852.077 85.2855 850.042 91.5335 845.971 95.8882C841.995 100.243 836.173 102.42 828.505 102.42ZM873.245 15.8002H856.915V1.60017H905.195V15.8002H888.865V101H873.245V15.8002ZM927.654 58.6842L908.768 1.60017H925.382L936.032 38.0942H936.316L946.966 1.60017H962.16L943.274 58.6842V101H927.654V58.6842ZM969.197 1.60017H984.817V86.8002H1010.52V101H969.197V1.60017ZM1018.01 1.60017H1060.61V15.8002H1033.63V42.0702H1055.07V56.2702H1033.63V86.8002H1060.61V101H1018.01V1.60017Z"/></svg>